<?xml version="1.0" standalone="no"?>
<!DOCTYPE svg PUBLIC "-//W3C//DTD SVG 20010904//EN"
 "http://www.w3.org/TR/2001/REC-SVG-20010904/DTD/svg10.dtd">
<svg version="1.0" xmlns="http://www.w3.org/2000/svg"
 width="1146.000000pt" height="1280.000000pt" viewBox="0 0 1146.000000 1280.000000"
 preserveAspectRatio="xMidYMid meet">
<g transform="translate(0.000000,1280.000000) scale(0.100000,-0.100000)"
fill="#000000" stroke="none">
<path d="M11011 12775 c-110 -31 -264 -107 -376 -186 -50 -36 -152 -127 -230
-205 -152 -152 -246 -225 -425 -328 -229 -131 -545 -249 -985 -365 -126 -34
-239 -65 -250 -70 -31 -13 -485 -380 -624 -505 -124 -111 -290 -288 -334 -355
-156 -241 -199 -279 -517 -461 -169 -97 -236 -141 -311 -205 -70 -60 -172
-119 -339 -195 -285 -131 -393 -205 -507 -348 -168 -208 -328 -349 -773 -680
-291 -217 -427 -324 -543 -429 -98 -87 -176 -125 -271 -131 -101 -6 -156 4
-208 38 -58 39 -89 95 -96 176 -10 131 52 210 245 314 166 88 223 123 375 224
528 353 898 642 1268 991 123 116 144 132 238 176 116 55 390 169 684 283 108
43 201 83 207 90 6 7 17 39 26 71 64 248 -92 460 -361 490 -80 9 -155 -12
-225 -64 -30 -22 -110 -106 -179 -187 -96 -113 -138 -154 -180 -178 l-55 -31
-180 0 -180 0 -125 -52 c-254 -103 -403 -130 -933 -164 l-178 -11 -84 -49
c-250 -143 -585 -261 -938 -328 -282 -54 -447 -71 -697 -71 -139 0 -261 -5
-292 -11 -60 -13 -157 -59 -179 -85 -8 -9 -36 -35 -64 -57 -85 -66 -180 -162
-294 -295 -126 -148 -218 -236 -286 -276 -58 -35 -108 -31 -169 11 -75 52
-116 129 -195 369 -40 120 -85 246 -101 279 -106 228 -132 276 -179 327 -58
63 -134 104 -212 113 -30 4 -89 13 -133 21 -105 19 -173 18 -284 -6 -144 -29
-247 -85 -353 -190 -110 -109 -148 -182 -184 -361 -30 -153 -30 -159 -4 -284
25 -120 53 -196 114 -314 46 -89 46 -89 39 -163 -19 -214 136 -408 340 -425
109 -10 237 -97 381 -259 38 -44 105 -116 148 -161 73 -76 80 -86 93 -145 25
-120 44 -325 59 -658 23 -489 44 -625 141 -912 78 -229 131 -319 282 -472 100
-101 220 -198 412 -332 338 -236 356 -246 501 -295 99 -33 219 -46 312 -35 53
7 66 15 174 101 178 142 282 184 453 185 161 1 323 60 399 146 56 64 75 128
67 222 -5 68 -4 79 19 118 29 49 98 98 169 119 62 19 87 19 112 1 18 -14 19
-33 19 -743 l0 -728 -47 -80 c-136 -231 -203 -430 -228 -667 -33 -329 -16
-1171 38 -1868 12 -165 17 -342 17 -665 0 -430 -1 -442 -23 -520 -42 -145
-110 -262 -213 -363 -168 -166 -381 -267 -773 -367 -183 -47 -327 -102 -388
-149 -34 -25 -64 -76 -83 -135 l-7 -24 173 7 c96 3 300 11 454 16 350 12 583
26 795 46 213 21 235 21 360 -10 201 -50 286 -45 347 20 64 68 72 184 27 379
-33 142 -34 204 -11 475 35 401 77 665 148 928 33 123 99 321 127 380 27 59
57 63 517 72 377 7 403 8 457 29 35 14 70 36 92 61 64 72 67 94 77 595 14 758
42 1094 120 1425 11 47 49 227 85 400 62 297 174 805 419 1895 85 377 168 765
241 1117 4 20 93 109 317 319 550 514 860 837 1107 1154 52 66 138 174 191
240 53 66 169 217 259 335 404 531 592 751 807 941 104 92 146 146 233 300 43
76 96 131 151 160 23 11 81 51 128 89 207 163 394 271 580 334 l100 34 143
132 c259 240 379 385 427 517 12 32 26 67 31 78 8 15 3 39 -19 98 -47 125
-100 181 -207 217 -74 25 -108 24 -213 -5z"/>
</g>
</svg>
